<?xml version="1.0" encoding="utf-8"?>
<!-- Generator: Adobe Illustrator 20.0.0, SVG Export Plug-In . SVG Version: 6.00 Build 0)  -->
<svg version="1.1" id="Слой_1" xmlns="http://www.w3.org/2000/svg" xmlns:xlink="http://www.w3.org/1999/xlink" x="0px" y="0px"
	 viewBox="0 0 74.6 74.8" style="enable-background:new 0 0 74.6 74.8;" xml:space="preserve">
<style type="text/css">
	.st0{opacity:0.5;fill-rule:evenodd;clip-rule:evenodd;fill:none;stroke:#051730;stroke-width:0.9726;stroke-miterlimit:10;}
	
		.st1{opacity:0.5;fill-rule:evenodd;clip-rule:evenodd;fill:url(#SVGID_1_);stroke:#051730;stroke-width:0.9726;stroke-miterlimit:10;}
	.st2{opacity:0.5;}
	.st3{fill:#051730;}
	.st4{fill:#051730;stroke:#051730;stroke-miterlimit:10;}
	.st5{fill:none;stroke:#051730;stroke-miterlimit:10;}
</style>
<g>
	<circle class="st0" cx="37.3" cy="37.4" r="36.9"/>
	<linearGradient id="SVGID_1_" gradientUnits="userSpaceOnUse" x1="14.8796" y1="64.0846" x2="59.7037" y2="10.6654">
		<stop  offset="0" style="stop-color:#051730"/>
		<stop  offset="0.7908" style="stop-color:#051730;stop-opacity:0"/>
	</linearGradient>
	<circle class="st1" cx="37.3" cy="37.4" r="34.9"/>
</g>
<g class="st2">
	<g>
		<polyline class="st3" points="40.9,28.6 45,25.7 48.1,10.8 40.8,28.5 40.9,28.5 40.9,28.6 		"/>
		<polygon class="st3" points="51.1,40.1 46.1,41 63.8,48.3 		"/>
		<polygon class="st3" points="48.1,10.8 39.9,23.5 40.8,28.5 		"/>
		<polygon class="st3" points="46,41 48.9,45.1 63.7,48.3 46.6,40.9 		"/>
		<polygon class="st3" points="28.3,33.7 28.4,33.7 25.5,29.6 10.7,26.5 23.3,34.6 		"/>
		<polygon class="st3" points="33.5,46.2 29.4,49 26.3,63.9 34.5,51.2 33.6,46.3 		"/>
		<polygon class="st3" points="50.9,34.6 63.7,26.3 46.1,33.7 46,33.7 46,33.7 46,33.7 46,33.7 		"/>
		<polygon class="st3" points="40.9,46.2 40.9,46.2 40,51.1 48.3,63.8 45.1,49.1 		"/>
		<polygon class="st3" points="63.7,26.3 49,29.4 46.1,33.7 		"/>
		<polygon class="st3" points="33.5,28.5 33.5,28.5 34.4,23.6 26.1,10.9 29.3,25.6 		"/>
		<polygon class="st3" points="28.4,41 23.5,40.1 10.7,48.4 25.5,45.2 28.3,41.1 		"/>
	</g>
</g>
<g>
	<polygon class="st4" points="37.3,8.7 37.3,27.8 40.1,23.5 	"/>
	<polygon class="st4" points="8.5,37.5 27.6,37.5 23.3,34.8 	"/>
	<path class="st4" d="M40.8,28.5L40.8,28.5L40,23.1c0-0.1-0.2-0.2-0.3,0l-2.4,4.7v0.1l1.4,2.2L40.8,28.5z"/>
	<polygon class="st4" points="40.8,28.6 38.6,30.1 39.5,31.5 	"/>
	<polygon class="st4" points="28.4,33.8 29.9,35.9 31.4,35 	"/>
	<polygon class="st4" points="37.3,37.5 43,39.8 45.9,40.9 44.5,38.9 44.5,38.9 44.5,38.9 44.5,38.9 46,41 46.1,41 65.9,37.5 
		43.5,37.5 44.5,38.9 44.5,38.9 44.4,38.8 44.4,38.9 43.5,37.5 43.5,37.5 37.3,37.5 37.2,37.4 37.2,37.5 37.2,37.5 37.2,37.5 
		40.9,46.2 57.5,57.7 	"/>
	<polygon class="st4" points="37.3,37.3 41.7,32.9 43.4,33.2 43.4,33.2 43.4,33.2 43.4,33.3 43.4,33.3 43,34.9 43.4,33.3 41.7,33 
		37.3,37.4 43,34.9 43,34.9 43,34.9 43,34.9 45.8,33.7 43.4,33.3 43.4,33.1 45.8,33.5 45.8,33.5 46.2,33.4 57.5,17.1 41.7,32.8 
		37.3,37.3 	"/>
	<polygon class="st4" points="37.3,27.9 37.3,31.1 38.8,30.1 	"/>
	<polygon class="st4" points="39.5,31.5 38.7,30.1 37.3,31.1 37.3,37.1 34.9,31.6 33.6,28.6 33.5,28.5 29.4,25.6 16.9,17.1 
		30.4,30.6 30.5,30.7 32.9,32.9 37.3,37.3 37.3,37.3 37.2,37.3 37.3,37.4 37.2,37.2 	"/>
	<path class="st4" d="M37.3,37.4l-0.1,0.1L31.4,35L29.9,36l-1.5-2.2l-0.1,0l-5,1l4.2,2.7h0.1h3.1H37l-8.6,3.6L16.9,57.7L37,37.5
		l-3.5,8.7l3.8,19.8V37.5h-0.1l-0.1,0L37.3,37.4L37.3,37.4L37.3,37.4z M29.9,36l0.7,1.1L29.9,36L29.9,36z"/>
</g>
<g>
	<polyline class="st5" points="37.3,46.9 37.3,47 37.3,66.1 40,51.1 	"/>
	<polygon class="st5" points="46,33.7 46.1,33.7 46.2,33.5 45.8,33.7 45.8,33.7 46,33.7 46,33.7 	"/>
	<path class="st5" d="M50.9,34.6L46,33.7l0,0l0,0l-0.2,0L43,34.8l-5.8,2.5l0,0l0,0l0,0l0,0.1l0.2,0.1l4.3,4.3l2.3,2.3l0.1,0.1
		l13.5,13.5l-8.6-12.5L46,41l0.1,0l0,0L46,40.9l0,0l0,0l0,0l-1.2-0.5L43,39.8l-5.6-2.3h28.4L50.9,34.6 M46.8,37.3 M46.3,37L46.3,37
		 M37.2,37.5L37.2,37.5L37.2,37.5L37.2,37.5z"/>
	<path class="st5" d="M38.6,30.1l2.2-1.5l-3.5,8.8v0l0,0l0,0l0,0l4.6-4.4l2.5-2.3v-0.2h-0.2l0.1-0.1l-0.1,0.1L57.5,17L45,25.7
		l-4.1,2.9 M40.9,28.6L40.9,28.6L40.9,28.6L40.9,28.6l-2.2,1.5 M39.6,31.6l-2.4,5.8l0,0L39.6,31.6 M43.9,30.6L43.9,30.6L43.9,30.6"
		/>
	<polygon class="st5" points="37.3,37.3 37.4,37.4 37.3,37.3 37.3,31.1 37.3,27.9 37.4,27.8 37.3,27.7 37.3,8.7 34.5,23.6 
		34.5,23.7 33.6,28.5 33.5,28.5 33.5,28.6 34.7,31.5 34.7,31.6 37,37.2 32.7,32.9 30.5,30.7 30.4,30.6 16.9,17.1 25.5,29.6 
		28.4,33.7 28.3,33.7 28.4,33.8 31.4,35 37.2,37.3 37.3,37.4 37.3,37.3 	"/>
	<polyline class="st5" points="40,51.1 40.9,46.2 40.9,46.2 40.9,46.2 39.6,43.2 39.6,43.2 	"/>
	<path class="st5" d="M37.2,46.9"/>
	<polyline class="st5" points="39.6,43.2 37.1,37.5 37.2,37.5 37.2,37.5 37.2,37.5 8.5,37.5 28.4,41 37,37.5 32.7,41.8 30.5,44.1 
		30.4,44.2 16.9,57.7 29.4,49 33.5,46.2 33.6,46.3 33.6,46.2 34.8,43.2 37,37.7 	"/>
</g>
</svg>
