<?xml version="1.0" encoding="utf-8"?>
<!-- Generator: Adobe Illustrator 20.0.0, SVG Export Plug-In . SVG Version: 6.00 Build 0)  -->
<svg version="1.1" id="Слой_1" xmlns="http://www.w3.org/2000/svg" xmlns:xlink="http://www.w3.org/1999/xlink" x="0px" y="0px"
	 viewBox="0 0 40 58" style="enable-background:new 0 0 40 58;" xml:space="preserve">
<style type="text/css">
	.st0{opacity:0.91;fill:url(#SVGID_1_);}
	.st1{fill:#E0C3B6;}
	.st2{fill:none;stroke:#E0C3B6;stroke-miterlimit:10;}
</style>
<g>
	<g>
		<g>
			<linearGradient id="SVGID_1_" gradientUnits="userSpaceOnUse" x1="9.0302" y1="42.1371" x2="30.9398" y2="16.0263">
				<stop  offset="0" style="stop-color:#D7B39D"/>
				<stop  offset="0.7908" style="stop-color:#D7B39D;stop-opacity:0"/>
			</linearGradient>
			<path class="st0" d="M20,46.1c-9.4,0-17-7.6-17-17.1s7.6-17,17-17S37,19.7,37,29.1S29.4,46.1,20,46.1z"/>
			<g>
				<path class="st1" d="M20,12.5c9.1,0,16.6,7.4,16.6,16.5S29.1,45.6,20,45.6S3.4,38.2,3.4,29.1S10.9,12.5,20,12.5 M20,11.5
					c-9.7,0-17.5,7.9-17.5,17.5c0,9.7,7.9,17.5,17.5,17.5c9.7,0,17.6-7.9,17.6-17.5C37.5,19.4,29.7,11.5,20,11.5L20,11.5z"/>
			</g>
		</g>
		<circle class="st2" cx="20" cy="29" r="19.5"/>
	</g>
	<g>
		<rect x="8.9" y="22.4" class="st2" width="22.1" height="13.2"/>
		<polyline class="st2" points="29.8,33.2 24.9,32.2 20.4,27.6 17.7,30.2 19.2,31.7 16.9,29.4 13.7,32.3 10.2,33.2 		"/>
		<circle class="st2" cx="24.9" cy="27.3" r="1.1"/>
	</g>
</g>
</svg>
